<svg width="20" height="25" viewBox="0 0 20 25" fill="none" xmlns="http://www.w3.org/2000/svg">
<path opacity="0.9" fill-rule="evenodd" clip-rule="evenodd" d="M14.452 0.359985C14.6216 1.69214 14.0021 3.02808 13.0862 3.99033C12.1688 4.95099 10.6647 5.69913 9.19238 5.60138C8.99402 4.29535 9.73732 2.93402 10.5863 2.08224C11.5334 1.12009 13.1326 0.406189 14.452 0.359985ZM18.4147 8.73694C18.1932 8.8754 15.8822 10.3197 15.9096 13.2433C15.9411 16.7071 18.7928 17.9357 19.0253 18.0358C19.0338 18.0395 19.0388 18.0416 19.04 18.0423C19.0387 18.0463 19.0364 18.0538 19.0331 18.0647C18.9672 18.2801 18.4954 19.823 17.4242 21.4141C16.4517 22.86 15.445 24.3 13.8542 24.3292C13.0906 24.3435 12.5806 24.119 12.0503 23.8857C11.4951 23.6414 10.9177 23.3873 10.0037 23.3873C9.04747 23.3873 8.44321 23.6489 7.86095 23.9009C7.35562 24.1197 6.86688 24.3313 6.17902 24.3585C4.64536 24.4169 3.47743 22.8 2.49654 21.3586C0.48996 18.4143 -1.04144 13.0371 1.01775 9.40723C2.03581 7.60287 3.86232 6.46439 5.84459 6.43219C6.69978 6.41602 7.52734 6.75037 8.25122 7.04285C8.80365 7.26605 9.29572 7.46487 9.6936 7.46487C10.0521 7.46487 10.532 7.27261 11.0913 7.04849C11.972 6.69568 13.0497 6.26385 14.1615 6.37897C14.9219 6.41043 17.0571 6.68945 18.428 8.72858L18.4147 8.73694Z" fill="white"/>
</svg>
