<svg width="22" height="26" viewBox="0 0 22 26" fill="none" xmlns="http://www.w3.org/2000/svg">
<path fill-rule="evenodd" clip-rule="evenodd" d="M0.455902 1.45663C0.157972 1.94904 0 2.51804 0 3.09872V22.9017C0 24.4996 1.17105 25.815 2.67499 25.9821L2.69748 26L2.70742 25.9855C2.80347 25.9951 2.90084 26 2.99932 26C3.56145 26 4.11227 25.8368 4.58895 25.5291L20.9424 14.9707C21.996 14.2906 22.3162 12.8569 21.6578 11.7686C21.4767 11.4694 21.2321 11.2167 20.9424 11.0297L4.58895 0.471375C4.00495 0.0943298 3.34391 -0.0497131 2.70774 0.0149536L2.69748 0L2.67418 0.0185547C1.79262 0.118469 0.962412 0.619476 0.455902 1.45663ZM3.99015 24.1164L13.2882 18.0918L10.7064 14.3297L3.99015 24.1164ZM11.6189 13L14.5514 17.2733L20.1309 13.6581C20.4814 13.431 20.588 12.9523 20.3689 12.5889C20.3087 12.489 20.2273 12.4046 20.1309 12.3421L14.5513 8.7269L11.6189 13ZM13.2881 7.90839L10.7064 11.6703L3.99041 1.88403L13.2881 7.90839ZM9.79387 13L2.1284 24.1699C1.75778 23.8874 1.51724 23.4322 1.51724 22.9188V3.08148C1.51724 2.79062 1.59608 2.50565 1.74477 2.259C1.84854 2.08688 1.97952 1.94312 2.12833 1.82999L9.79387 13Z" fill="white"/>
</svg>
